<mxfile host="app.diagrams.net" agent="Mozilla/5.0 (Windows NT 10.0; Win64; x64) AppleWebKit/537.36 (KHTML, like Gecko) Chrome/131.0.0.0 Safari/537.36" version="25.0.3">
  <diagram name="Trang-1" id="y7FxIvlwSS2VYgq7TVbd">
    <mxGraphModel dx="1129" dy="561" grid="0" gridSize="10" guides="1" tooltips="1" connect="1" arrows="1" fold="1" page="1" pageScale="1" pageWidth="1169" pageHeight="827" background="none" math="0" shadow="0">
      <root>
        <mxCell id="0" />
        <mxCell id="1" parent="0" />
        <mxCell id="SwT-NRFfroR6oMXkltka-1" value="Hệ Thống Quản Lý Điểm Thi" style="rounded=0;whiteSpace=wrap;html=1;fontSize=14;fontStyle=1" vertex="1" parent="1">
          <mxGeometry x="200" y="40" width="480" height="40" as="geometry" />
        </mxCell>
        <mxCell id="SwT-NRFfroR6oMXkltka-3" value="" style="endArrow=none;html=1;rounded=0;" edge="1" parent="1">
          <mxGeometry width="50" height="50" relative="1" as="geometry">
            <mxPoint x="740" y="120" as="sourcePoint" />
            <mxPoint x="140" y="120" as="targetPoint" />
          </mxGeometry>
        </mxCell>
        <mxCell id="SwT-NRFfroR6oMXkltka-4" value="Quản lý tài khoản" style="rounded=0;whiteSpace=wrap;html=1;fontSize=14;fontStyle=1" vertex="1" parent="1">
          <mxGeometry x="80" y="160" width="120" height="40" as="geometry" />
        </mxCell>
        <mxCell id="SwT-NRFfroR6oMXkltka-5" value="Quản lý điểm" style="rounded=0;whiteSpace=wrap;html=1;fontSize=14;fontStyle=1" vertex="1" parent="1">
          <mxGeometry x="280" y="160" width="120" height="40" as="geometry" />
        </mxCell>
        <mxCell id="SwT-NRFfroR6oMXkltka-6" value="Quản lý đào tạo" style="rounded=0;whiteSpace=wrap;html=1;fontSize=14;fontStyle=1" vertex="1" parent="1">
          <mxGeometry x="480" y="160" width="120" height="40" as="geometry" />
        </mxCell>
        <mxCell id="SwT-NRFfroR6oMXkltka-7" value="Thống kê" style="rounded=0;whiteSpace=wrap;html=1;fontSize=14;fontStyle=1" vertex="1" parent="1">
          <mxGeometry x="680" y="160" width="120" height="40" as="geometry" />
        </mxCell>
        <mxCell id="SwT-NRFfroR6oMXkltka-12" value="" style="endArrow=none;html=1;rounded=0;" edge="1" parent="1">
          <mxGeometry width="50" height="50" relative="1" as="geometry">
            <mxPoint x="90" y="500" as="sourcePoint" />
            <mxPoint x="90" y="200" as="targetPoint" />
          </mxGeometry>
        </mxCell>
        <mxCell id="SwT-NRFfroR6oMXkltka-13" value="" style="endArrow=none;html=1;rounded=0;" edge="1" parent="1">
          <mxGeometry width="50" height="50" relative="1" as="geometry">
            <mxPoint x="690" y="580" as="sourcePoint" />
            <mxPoint x="690" y="200" as="targetPoint" />
          </mxGeometry>
        </mxCell>
        <mxCell id="SwT-NRFfroR6oMXkltka-14" value="" style="endArrow=none;html=1;rounded=0;" edge="1" parent="1">
          <mxGeometry width="50" height="50" relative="1" as="geometry">
            <mxPoint x="490" y="340" as="sourcePoint" />
            <mxPoint x="490" y="200" as="targetPoint" />
          </mxGeometry>
        </mxCell>
        <mxCell id="SwT-NRFfroR6oMXkltka-15" value="" style="endArrow=none;html=1;rounded=0;" edge="1" parent="1">
          <mxGeometry width="50" height="50" relative="1" as="geometry">
            <mxPoint x="290" y="420" as="sourcePoint" />
            <mxPoint x="290" y="200" as="targetPoint" />
          </mxGeometry>
        </mxCell>
        <mxCell id="SwT-NRFfroR6oMXkltka-16" value="Cấp tài khoản sinh viên" style="rounded=0;whiteSpace=wrap;html=1;fontStyle=1;fontSize=14;textShadow=0;" vertex="1" parent="1">
          <mxGeometry x="140" y="240" width="120" height="40" as="geometry" />
        </mxCell>
        <mxCell id="SwT-NRFfroR6oMXkltka-17" value="Cấp tài khoản giảng viên" style="rounded=0;whiteSpace=wrap;html=1;fontStyle=1;fontSize=14;textShadow=0;" vertex="1" parent="1">
          <mxGeometry x="140" y="320" width="120" height="40" as="geometry" />
        </mxCell>
        <mxCell id="SwT-NRFfroR6oMXkltka-18" value="Xóa tài khoản sinh viên" style="rounded=0;whiteSpace=wrap;html=1;fontStyle=1;fontSize=14;textShadow=0;" vertex="1" parent="1">
          <mxGeometry x="140" y="400" width="120" height="40" as="geometry" />
        </mxCell>
        <mxCell id="SwT-NRFfroR6oMXkltka-19" value="Xóa tài khoản giảng viên" style="rounded=0;whiteSpace=wrap;html=1;fontStyle=1;fontSize=14;textShadow=0;" vertex="1" parent="1">
          <mxGeometry x="140" y="480" width="120" height="40" as="geometry" />
        </mxCell>
        <mxCell id="SwT-NRFfroR6oMXkltka-20" value="Thêm điểm" style="rounded=0;whiteSpace=wrap;html=1;fontStyle=1;fontSize=14;textShadow=0;" vertex="1" parent="1">
          <mxGeometry x="340" y="240" width="120" height="40" as="geometry" />
        </mxCell>
        <mxCell id="SwT-NRFfroR6oMXkltka-21" value="Cập nhật điểm" style="rounded=0;whiteSpace=wrap;html=1;fontStyle=1;fontSize=14;textShadow=0;" vertex="1" parent="1">
          <mxGeometry x="340" y="320" width="120" height="40" as="geometry" />
        </mxCell>
        <mxCell id="SwT-NRFfroR6oMXkltka-22" value="Xóa điểm" style="rounded=0;whiteSpace=wrap;html=1;fontStyle=1;fontSize=14;textShadow=0;" vertex="1" parent="1">
          <mxGeometry x="340" y="400" width="120" height="40" as="geometry" />
        </mxCell>
        <mxCell id="SwT-NRFfroR6oMXkltka-23" value="Thêm học kỳ" style="rounded=0;whiteSpace=wrap;html=1;fontStyle=1;fontSize=14;textShadow=0;" vertex="1" parent="1">
          <mxGeometry x="540" y="240" width="120" height="40" as="geometry" />
        </mxCell>
        <mxCell id="SwT-NRFfroR6oMXkltka-24" value="Thêm môn học" style="rounded=0;whiteSpace=wrap;html=1;fontStyle=1;fontSize=14;textShadow=0;" vertex="1" parent="1">
          <mxGeometry x="540" y="320" width="120" height="40" as="geometry" />
        </mxCell>
        <mxCell id="SwT-NRFfroR6oMXkltka-25" value="Điểm quá trình 2" style="rounded=0;whiteSpace=wrap;html=1;fontStyle=1;fontSize=14;textShadow=0;" vertex="1" parent="1">
          <mxGeometry x="740" y="320" width="120" height="40" as="geometry" />
        </mxCell>
        <mxCell id="SwT-NRFfroR6oMXkltka-26" value="Học kì" style="rounded=0;whiteSpace=wrap;html=1;fontStyle=1;fontSize=14;textShadow=0;" vertex="1" parent="1">
          <mxGeometry x="740" y="480" width="120" height="40" as="geometry" />
        </mxCell>
        <mxCell id="SwT-NRFfroR6oMXkltka-27" value="Điểm thi" style="rounded=0;whiteSpace=wrap;html=1;fontStyle=1;fontSize=14;textShadow=0;" vertex="1" parent="1">
          <mxGeometry x="740" y="400" width="120" height="40" as="geometry" />
        </mxCell>
        <mxCell id="SwT-NRFfroR6oMXkltka-28" value="Điểm quá trình 1" style="rounded=0;whiteSpace=wrap;html=1;fontStyle=1;fontSize=14;textShadow=0;" vertex="1" parent="1">
          <mxGeometry x="740" y="240" width="120" height="40" as="geometry" />
        </mxCell>
        <mxCell id="SwT-NRFfroR6oMXkltka-29" value="" style="endArrow=none;html=1;rounded=0;exitX=0;exitY=0.5;exitDx=0;exitDy=0;" edge="1" parent="1" source="SwT-NRFfroR6oMXkltka-16">
          <mxGeometry width="50" height="50" relative="1" as="geometry">
            <mxPoint x="40" y="310" as="sourcePoint" />
            <mxPoint x="90" y="260" as="targetPoint" />
          </mxGeometry>
        </mxCell>
        <mxCell id="SwT-NRFfroR6oMXkltka-30" value="" style="endArrow=none;html=1;rounded=0;exitX=0;exitY=0.5;exitDx=0;exitDy=0;" edge="1" parent="1">
          <mxGeometry width="50" height="50" relative="1" as="geometry">
            <mxPoint x="540" y="259.5" as="sourcePoint" />
            <mxPoint x="490" y="259.5" as="targetPoint" />
          </mxGeometry>
        </mxCell>
        <mxCell id="SwT-NRFfroR6oMXkltka-31" value="" style="endArrow=none;html=1;rounded=0;exitX=0;exitY=0.5;exitDx=0;exitDy=0;" edge="1" parent="1">
          <mxGeometry width="50" height="50" relative="1" as="geometry">
            <mxPoint x="340" y="340" as="sourcePoint" />
            <mxPoint x="290" y="340" as="targetPoint" />
          </mxGeometry>
        </mxCell>
        <mxCell id="SwT-NRFfroR6oMXkltka-32" value="" style="endArrow=none;html=1;rounded=0;exitX=0;exitY=0.5;exitDx=0;exitDy=0;" edge="1" parent="1">
          <mxGeometry width="50" height="50" relative="1" as="geometry">
            <mxPoint x="740" y="259.5" as="sourcePoint" />
            <mxPoint x="690" y="259.5" as="targetPoint" />
          </mxGeometry>
        </mxCell>
        <mxCell id="SwT-NRFfroR6oMXkltka-33" value="" style="endArrow=none;html=1;rounded=0;exitX=0;exitY=0.5;exitDx=0;exitDy=0;" edge="1" parent="1">
          <mxGeometry width="50" height="50" relative="1" as="geometry">
            <mxPoint x="140" y="339.5" as="sourcePoint" />
            <mxPoint x="90" y="339.5" as="targetPoint" />
          </mxGeometry>
        </mxCell>
        <mxCell id="SwT-NRFfroR6oMXkltka-34" value="" style="endArrow=none;html=1;rounded=0;exitX=0;exitY=0.5;exitDx=0;exitDy=0;" edge="1" parent="1">
          <mxGeometry width="50" height="50" relative="1" as="geometry">
            <mxPoint x="540" y="339.5" as="sourcePoint" />
            <mxPoint x="490" y="339.5" as="targetPoint" />
          </mxGeometry>
        </mxCell>
        <mxCell id="SwT-NRFfroR6oMXkltka-35" value="" style="endArrow=none;html=1;rounded=0;exitX=0;exitY=0.5;exitDx=0;exitDy=0;" edge="1" parent="1">
          <mxGeometry width="50" height="50" relative="1" as="geometry">
            <mxPoint x="200" y="320" as="sourcePoint" />
            <mxPoint x="150" y="320" as="targetPoint" />
          </mxGeometry>
        </mxCell>
        <mxCell id="SwT-NRFfroR6oMXkltka-36" value="" style="endArrow=none;html=1;rounded=0;exitX=0;exitY=0.5;exitDx=0;exitDy=0;" edge="1" parent="1">
          <mxGeometry width="50" height="50" relative="1" as="geometry">
            <mxPoint x="340" y="419.5" as="sourcePoint" />
            <mxPoint x="290" y="419.5" as="targetPoint" />
          </mxGeometry>
        </mxCell>
        <mxCell id="SwT-NRFfroR6oMXkltka-37" value="" style="endArrow=none;html=1;rounded=0;exitX=0;exitY=0.5;exitDx=0;exitDy=0;" edge="1" parent="1">
          <mxGeometry width="50" height="50" relative="1" as="geometry">
            <mxPoint x="340" y="259.5" as="sourcePoint" />
            <mxPoint x="290" y="259.5" as="targetPoint" />
          </mxGeometry>
        </mxCell>
        <mxCell id="SwT-NRFfroR6oMXkltka-38" value="" style="endArrow=none;html=1;rounded=0;exitX=0;exitY=0.5;exitDx=0;exitDy=0;" edge="1" parent="1">
          <mxGeometry width="50" height="50" relative="1" as="geometry">
            <mxPoint x="740" y="339.5" as="sourcePoint" />
            <mxPoint x="690" y="339.5" as="targetPoint" />
          </mxGeometry>
        </mxCell>
        <mxCell id="SwT-NRFfroR6oMXkltka-39" value="" style="endArrow=none;html=1;rounded=0;exitX=0;exitY=0.5;exitDx=0;exitDy=0;" edge="1" parent="1">
          <mxGeometry width="50" height="50" relative="1" as="geometry">
            <mxPoint x="140" y="419.5" as="sourcePoint" />
            <mxPoint x="90" y="419.5" as="targetPoint" />
          </mxGeometry>
        </mxCell>
        <mxCell id="SwT-NRFfroR6oMXkltka-40" value="" style="endArrow=none;html=1;rounded=0;exitX=0;exitY=0.5;exitDx=0;exitDy=0;" edge="1" parent="1">
          <mxGeometry width="50" height="50" relative="1" as="geometry">
            <mxPoint x="140" y="499.5" as="sourcePoint" />
            <mxPoint x="90" y="499.5" as="targetPoint" />
          </mxGeometry>
        </mxCell>
        <mxCell id="SwT-NRFfroR6oMXkltka-41" value="" style="endArrow=none;html=1;rounded=0;exitX=0;exitY=0.5;exitDx=0;exitDy=0;" edge="1" parent="1">
          <mxGeometry width="50" height="50" relative="1" as="geometry">
            <mxPoint x="740" y="419.5" as="sourcePoint" />
            <mxPoint x="690" y="419.5" as="targetPoint" />
          </mxGeometry>
        </mxCell>
        <mxCell id="SwT-NRFfroR6oMXkltka-42" value="" style="endArrow=none;html=1;rounded=0;exitX=0;exitY=0.5;exitDx=0;exitDy=0;" edge="1" parent="1">
          <mxGeometry width="50" height="50" relative="1" as="geometry">
            <mxPoint x="740" y="499.5" as="sourcePoint" />
            <mxPoint x="690" y="499.5" as="targetPoint" />
          </mxGeometry>
        </mxCell>
        <mxCell id="SwT-NRFfroR6oMXkltka-43" value="" style="endArrow=none;html=1;rounded=0;" edge="1" parent="1">
          <mxGeometry width="50" height="50" relative="1" as="geometry">
            <mxPoint x="440" y="120" as="sourcePoint" />
            <mxPoint x="440" y="80" as="targetPoint" />
          </mxGeometry>
        </mxCell>
        <mxCell id="SwT-NRFfroR6oMXkltka-44" value="" style="endArrow=none;html=1;rounded=0;" edge="1" parent="1">
          <mxGeometry width="50" height="50" relative="1" as="geometry">
            <mxPoint x="140" y="160" as="sourcePoint" />
            <mxPoint x="140" y="120" as="targetPoint" />
          </mxGeometry>
        </mxCell>
        <mxCell id="SwT-NRFfroR6oMXkltka-45" value="" style="endArrow=none;html=1;rounded=0;" edge="1" parent="1">
          <mxGeometry width="50" height="50" relative="1" as="geometry">
            <mxPoint x="339.5" y="160" as="sourcePoint" />
            <mxPoint x="339.5" y="120" as="targetPoint" />
          </mxGeometry>
        </mxCell>
        <mxCell id="SwT-NRFfroR6oMXkltka-46" value="" style="endArrow=none;html=1;rounded=0;" edge="1" parent="1">
          <mxGeometry width="50" height="50" relative="1" as="geometry">
            <mxPoint x="539" y="160" as="sourcePoint" />
            <mxPoint x="539" y="120" as="targetPoint" />
          </mxGeometry>
        </mxCell>
        <mxCell id="SwT-NRFfroR6oMXkltka-47" value="" style="endArrow=none;html=1;rounded=0;" edge="1" parent="1">
          <mxGeometry width="50" height="50" relative="1" as="geometry">
            <mxPoint x="739" y="160" as="sourcePoint" />
            <mxPoint x="739" y="120" as="targetPoint" />
          </mxGeometry>
        </mxCell>
        <mxCell id="SwT-NRFfroR6oMXkltka-48" value="Biểu đồ" style="rounded=0;whiteSpace=wrap;html=1;fontStyle=1;fontSize=14;textShadow=0;" vertex="1" parent="1">
          <mxGeometry x="740" y="560" width="120" height="40" as="geometry" />
        </mxCell>
        <mxCell id="SwT-NRFfroR6oMXkltka-49" value="" style="endArrow=none;html=1;rounded=0;exitX=0;exitY=0.5;exitDx=0;exitDy=0;" edge="1" parent="1">
          <mxGeometry width="50" height="50" relative="1" as="geometry">
            <mxPoint x="740" y="579.5" as="sourcePoint" />
            <mxPoint x="690" y="579.5" as="targetPoint" />
          </mxGeometry>
        </mxCell>
      </root>
    </mxGraphModel>
  </diagram>
</mxfile>
